<!--?xml version="1.0" standalone="no"?-->
              <svg id="sw-js-blob-svg" viewBox="0 0 100 100" xmlns="http://www.w3.org/2000/svg" version="1.1">
                    <defs> 
                        <linearGradient id="sw-gradient" x1="0" x2="1" y1="1" y2="0">
                            <stop id="stop1" stop-color="rgba(248, 117, 55, 1)" offset="0%"></stop>
                            <stop id="stop2" stop-color="rgba(251, 168, 31, 1)" offset="100%"></stop>
                        </linearGradient>
                    </defs>
                <path fill="url(#sw-gradient)" d="M21.5,-32.3C28.6,-33.1,35.7,-28.9,35,-22.7C34.3,-16.5,25.9,-8.2,25.7,-0.1C25.5,8,33.6,16,32.4,19.1C31.3,22.1,20.9,20.2,14,19.4C7.1,18.5,3.5,18.7,-1,20.5C-5.6,22.2,-11.1,25.5,-18.1,26.4C-25.1,27.3,-33.5,25.7,-34.2,20.9C-34.9,16.1,-27.9,8.1,-25.8,1.2C-23.7,-5.6,-26.4,-11.2,-26.1,-16.7C-25.8,-22.1,-22.3,-27.4,-17.4,-27.9C-12.6,-28.5,-6.3,-24.3,0.4,-25C7.2,-25.8,14.4,-31.6,21.5,-32.3Z" width="100%" height="100%" transform="translate(50 50)" style="transition: 0.3s;" stroke-width="0"></path>
              </svg>